<?xml version="1.0" standalone="no"?>
<!DOCTYPE svg PUBLIC "-//W3C//DTD SVG 20010904//EN"
 "http://www.w3.org/TR/2001/REC-SVG-20010904/DTD/svg10.dtd">
<svg version="1.0" xmlns="http://www.w3.org/2000/svg"
 width="260.000000pt" height="260.000000pt" viewBox="0 0 260.000000 260.000000"
 preserveAspectRatio="xMidYMid meet">
<metadata>
Created by potrace 1.14, written by Peter Selinger 2001-2017
</metadata>
<g transform="translate(0.000000,260.000000) scale(0.100000,-0.100000)"
fill="#000000" stroke="none">
<path d="M820 2303 c-8 -3 -31 -18 -50 -33 -19 -15 -53 -36 -75 -48 -22 -11
-77 -54 -122 -95 -45 -42 -90 -80 -100 -85 -10 -6 -57 -12 -103 -13 -47 -1
-91 -7 -98 -12 -14 -11 -16 -73 -2 -82 15 -9 12 -25 -5 -25 -8 0 -15 -3 -16
-7 -1 -10 -6 -30 -15 -63 -11 -39 -12 -133 -2 -152 10 -21 -2 -24 -20 -6 -7 7
-12 9 -12 5 0 -4 -16 2 -35 13 -32 18 -68 19 -97 3 -11 -6 13 -63 25 -60 7 1
11 -8 10 -19 -3 -28 39 -37 84 -19 25 11 34 11 42 1 7 -8 2 -15 -19 -24 -19
-9 -33 -25 -41 -50 -6 -20 -16 -43 -22 -49 -21 -28 14 -12 52 23 32 28 44 33
58 26 10 -6 22 -10 27 -10 11 1 66 -51 66 -63 0 -5 -10 -4 -22 2 -51 27 -58
29 -58 20 0 -6 5 -13 11 -17 21 -13 -15 -24 -56 -18 l-40 6 37 -32 c21 -17 38
-35 38 -39 0 -4 -14 -6 -32 -5 -18 1 -48 -6 -68 -16 -32 -18 -33 -19 -10 -19
37 0 130 -13 130 -18 0 -9 -33 -69 -48 -85 -19 -23 -2 -24 38 -3 34 18 50 43
50 79 0 15 8 30 20 36 21 11 27 1 10 -16 -6 -6 -12 -52 -14 -102 -3 -83 -2
-94 21 -126 13 -20 29 -36 35 -36 9 0 9 -3 0 -12 -14 -14 -16 -64 -2 -73 18
-11 82 7 87 25 3 10 14 21 25 23 18 5 20 2 15 -27 -3 -19 -1 -38 5 -44 7 -7 6
-17 -1 -30 -6 -11 -11 -30 -11 -42 0 -11 -6 -20 -13 -19 -52 7 -97 -30 -98
-81 -1 -36 5 -75 15 -107 7 -22 61 -59 81 -55 8 2 15 -2 15 -8 0 -16 42 -29
67 -19 17 6 23 3 33 -21 7 -17 16 -27 20 -25 5 3 11 -3 15 -14 3 -11 18 -22
34 -26 25 -5 27 -9 25 -46 -2 -48 15 -109 31 -109 40 0 141 63 130 81 -3 4 4
5 15 2 23 -6 25 -31 6 -85 l-13 -37 31 1 c17 0 47 -2 67 -5 60 -8 151 35 134
63 -8 13 14 9 33 -5 7 -5 24 -21 38 -35 16 -16 37 -26 62 -28 57 -3 62 -5 62
-15 0 -5 19 -6 43 -3 23 4 49 7 57 8 8 1 23 12 34 25 13 18 27 24 50 22 17 -1
39 1 49 5 38 14 47 15 47 7 0 -12 50 -32 62 -25 7 4 8 2 4 -4 -7 -12 -2 -13
89 -16 17 -1 36 -5 44 -10 11 -7 13 -5 8 8 -4 10 -7 45 -7 77 0 33 -3 58 -7
56 -5 -3 -8 5 -8 18 0 14 5 21 12 18 7 -3 15 2 19 10 3 9 14 14 24 12 10 -2
24 3 30 10 9 11 17 12 31 5 31 -17 62 -2 94 46 20 30 35 42 45 38 38 -15 88
-4 75 17 -4 5 4 9 17 9 40 1 87 53 87 96 0 10 3 33 7 50 8 42 -36 93 -83 96
-29 2 -33 6 -33 30 0 15 -5 30 -10 33 -6 4 -7 13 -1 23 5 10 7 30 4 45 -4 22
-2 27 15 27 11 0 22 -8 25 -19 5 -21 66 -39 86 -26 15 9 14 58 -1 73 -9 9 -8
12 4 12 9 0 25 18 37 40 18 34 20 53 16 127 -2 47 -9 91 -15 97 -17 17 -11 27
9 17 11 -6 21 -26 25 -51 5 -31 14 -45 39 -60 17 -11 40 -20 51 -20 17 0 17 1
-2 18 -12 9 -28 34 -36 55 -14 34 -14 37 2 38 9 0 33 2 52 5 19 3 46 5 60 5
22 0 21 2 -14 20 -28 15 -49 19 -75 15 l-36 -6 45 41 c44 41 44 42 15 34 -16
-4 -34 -8 -40 -9 -5 -1 -20 -7 -32 -14 -35 -19 -37 -14 -9 22 34 45 33 50 -5
31 -17 -9 -33 -14 -37 -11 -9 10 31 47 66 62 33 14 35 13 80 -26 25 -22 47
-38 49 -36 4 4 2 11 -31 75 -18 37 -11 55 25 57 44 3 49 4 49 14 0 6 10 24 22
41 17 22 20 34 12 46 -18 29 -72 23 -145 -16 -13 -8 -15 1 -15 63 0 67 -4 100
-19 146 -7 22 -21 27 -23 8 -1 -18 -11 -60 -15 -64 -2 -2 -18 9 -36 24 l-33
27 28 15 c50 25 64 42 64 76 0 42 -10 47 -90 51 -107 5 -122 11 -176 61 -75
70 -150 132 -161 132 -5 0 -35 18 -65 39 -31 21 -66 42 -78 46 -23 7 -80 -12
-80 -27 0 -5 -4 -6 -10 -3 -5 3 -12 -6 -16 -20 -3 -13 -10 -23 -14 -20 -11 7
-40 -5 -40 -16 0 -5 6 -9 14 -9 18 0 34 -20 40 -52 3 -20 0 -29 -14 -33 -11
-3 -22 -14 -25 -24 -4 -15 -13 -18 -39 -14 -22 3 -39 -1 -50 -12 -14 -15 -14
-18 0 -40 9 -14 21 -22 26 -19 6 4 -1 -12 -14 -35 -26 -47 -19 -59 35 -57 23
1 39 -7 58 -29 22 -24 30 -27 41 -17 21 17 17 -16 -5 -48 -18 -26 -22 -50 -9
-50 5 0 7 -13 4 -28 -3 -25 1 -31 28 -42 26 -11 33 -11 40 -1 6 11 9 10 16 0
5 -8 9 -20 9 -27 0 -15 51 -49 60 -40 3 3 8 16 10 28 3 13 8 26 13 29 5 3 11
14 15 24 5 15 10 15 26 5 11 -7 18 -15 15 -19 -2 -4 1 -19 7 -33 10 -21 19
-26 49 -26 21 0 43 7 50 15 23 27 40 18 33 -17 -5 -27 -3 -31 8 -20 20 19 26
15 27 -21 1 -18 -8 -48 -18 -65 -17 -27 -23 -31 -38 -23 -15 8 -24 4 -44 -19
-14 -16 -23 -32 -20 -35 4 -3 -1 -3 -9 0 -10 4 -19 -3 -28 -21 -10 -22 -9 -31
6 -53 17 -25 19 -30 22 -50 2 -18 72 -23 96 -7 29 19 38 10 19 -18 -8 -13 -11
-26 -7 -31 5 -4 3 -5 -3 -2 -12 7 -31 -11 -29 -28 3 -19 18 -70 24 -80 10 -18
10 -38 0 -57 -13 -24 -29 -23 -24 1 6 33 -32 95 -67 109 -17 6 -34 10 -36 7
-3 -2 3 -7 12 -11 9 -4 23 -22 31 -41 19 -45 19 -49 -2 -31 -10 9 -41 23 -68
31 -45 13 -55 13 -88 0 -20 -8 -35 -19 -32 -24 3 -4 12 -6 20 -3 7 3 27 -9 44
-27 35 -36 40 -55 12 -39 -21 11 -37 -7 -71 -73 -9 -18 -21 -27 -36 -27 -38 0
-94 -32 -94 -53 0 -10 -3 -17 -7 -15 -5 2 -20 10 -35 17 -23 12 -34 12 -70 -1
-42 -13 -45 -13 -63 9 -21 24 -55 31 -55 11 0 -6 -3 -8 -7 -5 -3 4 -12 -2 -20
-13 -17 -24 -25 -80 -12 -80 5 0 8 -3 8 -8 -4 -25 2 -42 14 -36 6 4 9 3 4 -1
-4 -5 0 -19 8 -32 14 -21 14 -24 0 -29 -10 -4 -26 3 -40 16 -14 13 -28 21 -31
17 -3 -3 -27 1 -52 8 -40 13 -49 12 -69 0 -30 -20 -30 -20 -53 24 -27 54 -78
91 -123 91 -26 0 -37 -5 -42 -19 -3 -11 -13 -18 -23 -16 -9 2 -20 4 -24 4 -5
1 -8 19 -8 41 0 36 -3 41 -36 55 -20 8 -46 15 -59 15 -16 0 -27 11 -41 41 -26
59 -41 72 -66 58 -33 -17 -30 -5 8 35 25 26 42 36 55 33 29 -8 23 9 -8 21 -46
18 -66 18 -116 -2 -27 -10 -50 -16 -53 -13 -9 8 19 57 33 57 7 0 13 5 13 10 0
13 -3 13 -44 -7 -37 -17 -61 -60 -58 -101 3 -34 -22 -23 -26 12 -2 15 4 48 12
73 20 59 21 54 -15 94 -24 27 -27 35 -14 37 9 2 22 -1 30 -8 15 -12 84 -4 86
11 1 5 2 14 3 19 0 6 6 14 13 18 17 10 28 62 13 62 -6 0 -9 4 -5 9 3 6 -5 15
-17 22 -12 7 -31 23 -41 36 -15 18 -22 21 -32 13 -10 -9 -19 -6 -34 9 -12 12
-22 27 -22 34 -9 78 -6 89 20 65 11 -11 13 -7 9 20 -5 34 10 43 31 18 6 -8 28
-16 47 -18 31 -4 37 0 50 23 8 16 14 34 14 42 0 24 31 30 37 7 4 -16 8 -18 19
-9 11 9 13 5 9 -20 -5 -40 13 -54 49 -38 21 9 26 17 23 36 -4 20 -2 22 23 18
16 -4 36 0 47 8 11 8 23 11 27 8 9 -9 8 2 -3 31 -7 17 -7 26 1 28 14 5 -8 68
-23 68 -5 0 -6 7 -3 15 4 10 13 13 24 10 13 -4 23 3 35 23 14 22 24 28 44 26
56 -7 75 14 49 56 -10 16 -9 25 6 51 19 31 19 32 0 46 -11 8 -33 12 -51 10
-24 -4 -33 -1 -33 9 0 8 -8 18 -17 21 -10 4 -21 11 -24 16 -11 16 11 66 32 72
26 9 24 22 -5 29 -14 3 -28 15 -31 26 -4 11 -22 27 -42 35 -37 16 -49 17 -73
8z m-120 -1235 c0 -4 -5 -10 -11 -13 -5 -4 -14 -18 -20 -32 -5 -13 -13 -22
-18 -19 -4 3 -23 1 -40 -4 -30 -8 -32 -7 -29 12 3 21 56 59 71 51 4 -2 7 0 7
4 0 5 9 9 20 9 11 0 20 -4 20 -8z"/>
<path d="M935 1568 c-11 -6 -36 -26 -55 -45 -27 -26 -32 -35 -22 -45 10 -10
22 -9 59 0 44 12 48 12 68 -11 35 -37 48 -68 51 -116 3 -52 -13 -88 -53 -116
-15 -11 -44 -36 -63 -56 -20 -20 -44 -40 -54 -46 -25 -14 -11 -36 17 -27 12 4
39 24 61 44 21 21 67 52 102 70 42 20 61 35 58 44 -3 8 -1 17 5 20 13 9 51
-29 52 -51 1 -10 2 -22 4 -28 1 -5 3 -27 3 -47 2 -31 7 -40 34 -54 41 -21 124
-26 139 -8 6 8 16 14 22 14 12 0 57 48 57 61 0 6 -4 18 -9 28 -12 22 -3 63 13
58 6 -2 18 -1 27 4 12 6 25 2 42 -11 14 -11 49 -25 78 -31 68 -15 94 -32 121
-80 23 -41 48 -52 48 -20 0 28 -60 103 -97 122 -27 14 -29 17 -14 27 14 10 14
11 -1 6 -10 -4 -18 -1 -18 5 0 10 14 15 33 12 4 0 7 5 7 12 0 23 -44 54 -89
63 -8 1 -21 10 -29 18 -14 14 -14 16 2 22 11 4 22 0 31 -12 8 -11 15 -14 15
-7 0 17 49 -8 56 -29 7 -22 23 -23 52 -2 20 14 21 17 7 37 -22 31 -18 47 4 18
l19 -25 -4 32 c-3 23 0 30 10 26 8 -3 17 -1 21 5 3 6 -1 11 -9 11 -9 0 -16 5
-16 11 0 5 5 7 10 4 6 -3 10 1 10 9 0 8 -10 21 -22 27 -13 7 -18 14 -11 16 17
6 -17 43 -40 43 -48 0 -78 -41 -51 -71 25 -28 4 -45 -66 -53 -48 -6 -64 -4
-87 11 -22 15 -52 18 -168 20 -77 1 -149 4 -160 7 -11 2 -23 5 -27 5 -4 1 -28
21 -54 46 -48 47 -79 56 -119 33z m403 -232 c-8 -20 -6 -37 13 -90 l23 -66
-21 -28 c-16 -21 -29 -27 -59 -28 -22 -1 -49 3 -62 7 -21 8 -22 13 -18 76 3
37 9 69 13 70 5 2 33 21 63 43 30 22 56 40 57 40 2 0 -2 -11 -9 -24z"/>
<path d="M450 495 c0 -8 -7 -15 -15 -15 -20 0 -19 -26 1 -34 12 -4 15 -15 12
-37 -5 -29 -3 -31 24 -25 15 3 27 2 27 -2 -4 -22 3 -32 22 -32 15 0 19 4 15
16 -4 11 1 18 14 21 23 6 26 18 8 30 -7 4 -18 17 -24 28 -6 11 -14 18 -17 15
-3 -3 -17 7 -31 23 -29 31 -36 33 -36 12z"/>
<path d="M2123 504 c3 -3 -2 -14 -11 -23 -13 -13 -21 -15 -32 -7 -8 6 -12 6
-8 2 4 -5 3 -15 -2 -22 -6 -6 -9 -18 -8 -25 2 -8 -2 -13 -9 -12 -6 1 -14 -4
-17 -12 -4 -10 1 -15 15 -15 11 0 18 -4 14 -9 -3 -5 3 -17 12 -27 16 -16 18
-15 26 10 7 21 13 25 33 20 23 -6 24 -4 18 21 -4 18 -2 30 6 35 19 12 21 40 4
40 -8 0 -14 7 -14 15 0 8 -7 15 -17 15 -9 0 -14 -3 -10 -6z"/>
</g>
</svg>
