<svg width="23" height="25" viewBox="0 0 23 25" fill="none" xmlns="http://www.w3.org/2000/svg">
<path d="M21.751 3.21978L19.2177 0.686475C18.7782 0.246935 18.182 3.25037e-06 17.5604 0L9.15625 0C7.86182 0 6.8125 1.04932 6.8125 2.34375V4.6875H2.90625C1.61182 4.6875 0.5625 5.73682 0.5625 7.03125V22.6562C0.5625 23.9507 1.61182 25 2.90625 25H13.8438C15.1382 25 16.1875 23.9507 16.1875 22.6562V20.3125H20.0938C21.3882 20.3125 22.4375 19.2632 22.4375 17.9688V4.87705C22.4375 4.25545 22.1906 3.65931 21.751 3.21978ZM13.5508 22.6562H3.19922C3.12152 22.6562 3.047 22.6254 2.99206 22.5704C2.93712 22.5155 2.90625 22.441 2.90625 22.3633V7.32422C2.90625 7.24652 2.93712 7.172 2.99206 7.11706C3.047 7.06212 3.12152 7.03125 3.19922 7.03125H6.8125V17.9688C6.8125 19.2632 7.86182 20.3125 9.15625 20.3125H13.8438V22.3633C13.8438 22.441 13.8129 22.5155 13.7579 22.5704C13.703 22.6254 13.6285 22.6562 13.5508 22.6562ZM19.8008 17.9688H9.44922C9.37152 17.9688 9.297 17.9379 9.24206 17.8829C9.18712 17.828 9.15625 17.7535 9.15625 17.6758V2.63672C9.15625 2.55902 9.18712 2.4845 9.24206 2.42956C9.297 2.37462 9.37152 2.34375 9.44922 2.34375H14.625V6.64062C14.625 7.28784 15.1497 7.8125 15.7969 7.8125H20.0938V17.6758C20.0938 17.7535 20.0629 17.828 20.0079 17.8829C19.953 17.9379 19.8785 17.9688 19.8008 17.9688ZM20.0938 5.46875H16.9688V2.34375H17.4391C17.5167 2.34375 17.5913 2.37461 17.6462 2.42954L20.008 4.79126C20.0352 4.81847 20.0567 4.85077 20.0715 4.88632C20.0862 4.92186 20.0938 4.95996 20.0938 4.99844V5.46875Z" fill="black"/>
</svg>
