<svg width="20" height="20" viewBox="0 0 20 20" fill="none" xmlns="http://www.w3.org/2000/svg">
<path fill-rule="evenodd" clip-rule="evenodd" d="M0 2.14286C0 0.959389 0.95939 -4.76837e-07 2.14286 0H6.42857C7.61204 4.76837e-07 8.57143 0.959389 8.57143 2.14286L8.57143 6.42857C8.57143 7.61204 7.61204 8.57143 6.42857 8.57143L2.14286 8.57143C0.95939 8.57143 9.53674e-07 7.61204 4.76837e-07 6.42857L0 2.14286ZM2.14286 1.42857C1.74837 1.42857 1.42857 1.74837 1.42857 2.14286V6.42857C1.42857 6.82306 1.74837 7.14286 2.14286 7.14286H6.42857C6.82306 7.14286 7.14286 6.82306 7.14286 6.42857V2.14286C7.14286 1.74837 6.82306 1.42857 6.42857 1.42857H2.14286ZM11.4286 2.14286C11.4286 0.959389 12.388 -4.76837e-07 13.5714 0H17.8571C19.0406 0 20 0.95939 20 2.14286V6.42857C20 7.61204 19.0406 8.57143 17.8571 8.57143L13.5714 8.57143C12.388 8.57143 11.4286 7.61204 11.4286 6.42857V2.14286ZM13.5714 1.42857C13.1769 1.42857 12.8571 1.74837 12.8571 2.14286V6.42857C12.8571 6.82306 13.1769 7.14286 13.5714 7.14286H17.8571C18.2516 7.14286 18.5714 6.82306 18.5714 6.42857V2.14286C18.5714 1.74837 18.2516 1.42857 17.8571 1.42857H13.5714ZM0 13.5714C0 12.388 0.95939 11.4286 2.14286 11.4286H6.42857C7.61204 11.4286 8.57143 12.388 8.57143 13.5714L8.57143 17.8571C8.57143 19.0406 7.61204 20 6.42857 20H2.14286C0.959389 20 0 19.0406 0 17.8571V13.5714ZM2.14286 12.8571C1.74837 12.8571 1.42857 13.1769 1.42857 13.5714V17.8571C1.42857 18.2516 1.74837 18.5714 2.14286 18.5714H6.42857C6.82306 18.5714 7.14286 18.2516 7.14286 17.8571V13.5714C7.14286 13.1769 6.82306 12.8571 6.42857 12.8571H2.14286ZM11.4286 13.5714C11.4286 12.388 12.388 11.4286 13.5714 11.4286H17.8571C19.0406 11.4286 20 12.388 20 13.5714V17.8571C20 19.0406 19.0406 20 17.8571 20H13.5714C12.388 20 11.4286 19.0406 11.4286 17.8571V13.5714ZM13.5714 12.8571C13.1769 12.8571 12.8571 13.1769 12.8571 13.5714V17.8571C12.8571 18.2516 13.1769 18.5714 13.5714 18.5714H17.8571C18.2516 18.5714 18.5714 18.2516 18.5714 17.8571V13.5714C18.5714 13.1769 18.2516 12.8571 17.8571 12.8571H13.5714Z" fill="#A4ABC5"/>
</svg>
