<svg width="18" height="20" viewBox="0 0 18 20" fill="none" xmlns="http://www.w3.org/2000/svg">
<path d="M5.27872 7.33419C5.63806 7.33485 5.92921 7.63268 5.92985 8.00027V16.0003C5.91512 16.3575 5.6277 16.6394 5.27814 16.6394C4.92858 16.6394 4.64116 16.3575 4.62644 16.0003V8.00027C4.62644 7.63175 4.91848 7.33301 5.27872 7.33301L5.27872 7.33419ZM8.53783 7.33419C8.89808 7.33419 9.19012 7.63294 9.19012 8.00145V16.0015C9.17538 16.3587 8.88797 16.6406 8.53841 16.6406C8.18885 16.6406 7.90143 16.3587 7.8867 16.0015V8.00027C7.8867 7.63175 8.17874 7.33301 8.53899 7.33301L8.53783 7.33419ZM12.4481 8.00145C12.4333 7.64419 12.1459 7.36231 11.7964 7.36231C11.4468 7.36231 11.1594 7.64419 11.1447 8.00145L11.1447 16.0015C11.1594 16.3587 11.4468 16.6406 11.7964 16.6406C12.1459 16.6406 12.4333 16.3587 12.4481 16.0015L12.4481 8.00027V8.00145Z" fill="#E72D67"/>
<path fill-rule="evenodd" clip-rule="evenodd" d="M17.0096 4C17.0096 4.73638 16.426 5.33333 15.7062 5.33333H15.0539V17.3333C15.0539 18.8061 13.8868 20 12.4471 20H4.62661C3.1869 20 2.01978 18.8061 2.01978 17.3333V5.33333H1.3675C0.647644 5.33333 0.0640869 4.73638 0.0640869 4V2.66667C0.0640869 1.93029 0.647644 1.33333 1.3675 1.33333H5.93002C5.93002 0.596954 6.51358 -1.41285e-07 7.23343 0H9.84025C10.5601 0 11.1437 0.596954 11.1437 1.33333H15.7062C16.426 1.33333 17.0096 1.93029 17.0096 2.66667V4ZM3.47729 5.33333L3.3232 5.41156V17.3333C3.3232 18.0697 3.90675 18.6667 4.62661 18.6667H12.4471C13.1669 18.6667 13.7505 18.0697 13.7505 17.3333V5.41156L13.5964 5.33333H3.47729ZM1.36866 4V2.66667H15.7062V4H1.36866Z" fill="#E72D67"/>
</svg>
