<svg width="60" height="60" viewBox="0 0 60 60" fill="none" xmlns="http://www.w3.org/2000/svg">
<path d="M0 6C0 2.68629 2.68629 0 6 0H30C46.5685 0 60 13.4315 60 30V30C60 46.5685 46.5685 60 30 60V60C13.4315 60 0 46.5685 0 30V6Z" fill="#6D5DF3"/>
<path d="M18.4793 34.125C19.8284 34.1174 21.126 33.606 22.1177 32.6913L31.7685 38.2104C31.6456 38.6364 31.5833 39.0775 31.5835 39.5208C31.5736 40.772 31.9951 41.9883 32.777 42.965C33.559 43.9418 34.6536 44.6192 35.8765 44.8834C37.0995 45.1475 38.3761 44.9822 39.4915 44.4152C40.6068 43.8482 41.4927 42.9143 42 41.7706C42.5074 40.6269 42.6051 39.3433 42.2768 38.136C41.9485 36.9286 41.2142 35.8713 40.1976 35.142C39.181 34.4127 37.9441 34.056 36.6952 34.1319C35.4464 34.2078 34.2618 34.7117 33.341 35.5588L23.6902 30.0396C23.8066 29.6597 23.8689 29.2652 23.8752 28.8679L33.3564 23.4413C34.2722 24.2689 35.4448 24.7564 36.6775 24.8221C37.9101 24.8878 39.1279 24.5277 40.1265 23.8021C41.1251 23.0765 41.8439 22.0296 42.1622 20.837C42.4806 19.6443 42.3792 18.3785 41.875 17.2517C41.3708 16.125 40.4945 15.2059 39.3931 14.6486C38.2917 14.0912 37.0321 13.9296 35.8257 14.1907C34.6192 14.4518 33.5392 15.1198 32.7668 16.0827C31.9945 17.0456 31.5766 18.2448 31.5835 19.4792C31.5887 19.9221 31.6509 20.3625 31.7685 20.7896L22.9964 25.8C22.4881 25.0137 21.784 24.3732 20.9532 23.9414C20.1224 23.5096 19.1936 23.3014 18.258 23.3373C17.3224 23.3732 16.4122 23.652 15.617 24.1461C14.8217 24.6403 14.1687 25.3329 13.7222 26.1559C13.2757 26.9788 13.051 27.9038 13.0702 28.8399C13.0894 29.776 13.3518 30.691 13.8317 31.4949C14.3116 32.2989 14.9925 32.9641 15.8074 33.4252C16.6222 33.8864 17.543 34.1275 18.4793 34.125ZM36.9793 37.2083C37.4367 37.2083 37.8838 37.344 38.2641 37.5981C38.6444 37.8522 38.9408 38.2133 39.1158 38.6359C39.2908 39.0584 39.3366 39.5234 39.2474 39.972C39.1582 40.4206 38.9379 40.8326 38.6145 41.156C38.2911 41.4794 37.8791 41.6997 37.4305 41.7889C36.9819 41.8781 36.5169 41.8323 36.0944 41.6573C35.6718 41.4823 35.3107 41.1859 35.0566 40.8056C34.8025 40.4253 34.6668 39.9782 34.6668 39.5208C34.6668 38.9075 34.9105 38.3193 35.3441 37.8857C35.7778 37.452 36.366 37.2083 36.9793 37.2083ZM36.9793 17.1667C37.4367 17.1667 37.8838 17.3023 38.2641 17.5564C38.6444 17.8105 38.9408 18.1717 39.1158 18.5942C39.2908 19.0168 39.3366 19.4817 39.2474 19.9303C39.1582 20.3789 38.9379 20.791 38.6145 21.1144C38.2911 21.4378 37.8791 21.658 37.4305 21.7472C36.9819 21.8365 36.5169 21.7907 36.0944 21.6156C35.6718 21.4406 35.3107 21.1442 35.0566 20.7639C34.8025 20.3836 34.6668 19.9365 34.6668 19.4792C34.6668 18.8659 34.9105 18.2777 35.3441 17.844C35.7778 17.4103 36.366 17.1667 36.9793 17.1667ZM18.4793 26.4167C18.9367 26.4167 19.3838 26.5523 19.7641 26.8064C20.1444 27.0605 20.4408 27.4217 20.6158 27.8442C20.7908 28.2668 20.8366 28.7317 20.7474 29.1803C20.6582 29.6289 20.4379 30.041 20.1145 30.3644C19.7911 30.6878 19.3791 30.908 18.9305 30.9972C18.4819 31.0865 18.0169 31.0407 17.5944 30.8656C17.1718 30.6906 16.8107 30.3942 16.5566 30.0139C16.3025 29.6336 16.1668 29.1865 16.1668 28.7292C16.1668 28.1159 16.4105 27.5277 16.8441 27.094C17.2778 26.6603 17.866 26.4167 18.4793 26.4167Z" fill="white"/>
</svg>
