<svg width="20" height="20" viewBox="0 0 20 20" fill="none" xmlns="http://www.w3.org/2000/svg">
<path d="M13.1562 5.8125C13.2806 5.8125 13.3998 5.86189 13.4877 5.94979C13.5756 6.0377 13.625 6.15693 13.625 6.28125C13.625 6.40557 13.5756 6.5248 13.4877 6.61271C13.3998 6.70061 13.2806 6.75 13.1562 6.75H8.46875C8.34443 6.75 8.2252 6.70061 8.13729 6.61271C8.04939 6.5248 8 6.40557 8 6.28125C8 6.15693 8.04939 6.0377 8.13729 5.94979C8.2252 5.86189 8.34443 5.8125 8.46875 5.8125H13.1562ZM13.1562 8.625C13.2806 8.625 13.3998 8.67439 13.4877 8.76229C13.5756 8.8502 13.625 8.96943 13.625 9.09375C13.625 9.21807 13.5756 9.3373 13.4877 9.42521C13.3998 9.51311 13.2806 9.5625 13.1562 9.5625H8.46875C8.34443 9.5625 8.2252 9.51311 8.13729 9.42521C8.04939 9.3373 8 9.21807 8 9.09375C8 8.96943 8.04939 8.8502 8.13729 8.76229C8.2252 8.67439 8.34443 8.625 8.46875 8.625H13.1562ZM13.625 11.9062C13.625 11.7819 13.5756 11.6627 13.4877 11.5748C13.3998 11.4869 13.2806 11.4375 13.1562 11.4375H8.46875C8.34443 11.4375 8.2252 11.4869 8.13729 11.5748C8.04939 11.6627 8 11.7819 8 11.9062C8 12.0306 8.04939 12.1498 8.13729 12.2377C8.2252 12.3256 8.34443 12.375 8.46875 12.375H13.1562C13.2806 12.375 13.3998 12.3256 13.4877 12.2377C13.5756 12.1498 13.625 12.0306 13.625 11.9062ZM13.1562 14.25C13.2806 14.25 13.3998 14.2994 13.4877 14.3873C13.5756 14.4752 13.625 14.5944 13.625 14.7188C13.625 14.8431 13.5756 14.9623 13.4877 15.0502C13.3998 15.1381 13.2806 15.1875 13.1562 15.1875H8.46875C8.34443 15.1875 8.2252 15.1381 8.13729 15.0502C8.04939 14.9623 8 14.8431 8 14.7188C8 14.5944 8.04939 14.4752 8.13729 14.3873C8.2252 14.2994 8.34443 14.25 8.46875 14.25H13.1562Z" fill="#8791B2"/>
<path d="M18 4.875C18 4.37772 17.8025 3.90081 17.4508 3.54917C17.0992 3.19754 16.6223 3 16.125 3H4.875C4.37772 3 3.90081 3.19754 3.54917 3.54917C3.19754 3.90081 3 4.37772 3 4.875L3 16.125C3 16.6223 3.19754 17.0992 3.54917 17.4508C3.90081 17.8025 4.37772 18 4.875 18H16.125C16.6223 18 17.0992 17.8025 17.4508 17.4508C17.8025 17.0992 18 16.6223 18 16.125V4.875ZM6.75 3.9375V17.0625H4.875C4.62636 17.0625 4.3879 16.9637 4.21209 16.7879C4.03627 16.6121 3.9375 16.3736 3.9375 16.125V4.875C3.9375 4.62636 4.03627 4.3879 4.21209 4.21209C4.3879 4.03627 4.62636 3.9375 4.875 3.9375H6.75ZM7.6875 3.9375H16.125C16.3736 3.9375 16.6121 4.03627 16.7879 4.21209C16.9637 4.3879 17.0625 4.62636 17.0625 4.875V16.125C17.0625 16.3736 16.9637 16.6121 16.7879 16.7879C16.6121 16.9637 16.3736 17.0625 16.125 17.0625H7.6875V3.9375Z" fill="#8791B2"/>
</svg>
