<svg width="20" height="20" viewBox="0 0 20 20" fill="none" xmlns="http://www.w3.org/2000/svg">
<path d="M10 3C5.79625 3 1.99563 5.32677 0.0811029 9.07248C-0.0270343 9.28396 -0.0270343 9.53514 0.0811029 9.74661C1.99563 13.4922 5.79633 15.8191 10 15.8191C14.2037 15.8191 18.0044 13.4923 19.9189 9.74661C20.027 9.53513 20.027 9.28396 19.9189 9.07248C18.0044 5.3269 14.2037 3 10 3ZM10 14.3378C6.48358 14.3378 3.29216 12.4592 1.58123 9.40942C3.29242 6.3601 6.48375 4.48108 10 4.48108C13.5164 4.48108 16.7078 6.35959 18.4188 9.40942C16.7076 12.4587 13.5162 14.3378 10 14.3378Z" fill="#8791B2"/>
<path d="M10 5.33594C7.75366 5.33594 5.9259 7.16369 5.9259 9.41008C5.9259 11.6565 7.75366 13.4842 10 13.4842C12.2464 13.4842 14.0742 11.6565 14.0742 9.41008C14.0742 7.16369 12.2464 5.33594 10 5.33594ZM10 12.0027C8.57048 12.0027 7.40741 10.8394 7.40741 9.41008C7.40741 7.98081 8.57048 6.81744 10 6.81744C11.4296 6.81744 12.5927 7.98081 12.5927 9.41008C12.5927 10.8394 11.4296 12.0027 10 12.0027Z" fill="#8791B2"/>
</svg>
